True Grit 2010 SCR XViD - IMAGiNE

********************************************************************************************************************
Ripper ...........: IMAGiNE IMDB Rating.......:8.5/10
Video Codec.......: XVID Release Date......:31/12/10
Audio Codec.......:MP3 Theatre Date......:22/12/10
Audio Bitrate.....:192 Runtime.......:1h 50mn
Subtitles.........:NIL Language..........:ENGLISH
Resolution...... 720 x 304 IMDb URL..........   http://www.imdb.com/title/tt1403865/

DETAILS:

Video
ID : 0
Format : MPEG-4 Visual
Format profile : Advanced Simple@L5
Format settings, BVOP : Yes
Format settings, QPel : No
Format settings, GMC : No warppoints
Format settings, Matrix : Default (H.263)
Muxing mode : Packed bitstream
Codec ID : XVID
Codec ID/Hint : XviD
Duration : 1h 50mn
Bit rate : 1 560 Kbps
Width : 720 pixels
Height : 304 pixels
Display aspect ratio : 2.35:1
Frame rate : 23.976 fps
Color space : YUV
Chroma subsampling : 4:2:0
Bit depth : 8 bits
Scan type : Progressive
Bits/(Pixel*Frame) : 0.297
Stream size : 1.20 GiB (89%)
Writing library : XviD 1.1.2 (UTC 2006-11-01)

Audio
ID : 1
Format : MPEG Audio
Format version : Version 1
Format profile : Layer 3
Codec ID : 55
Codec ID/Hint : MP3
Duration : 1h 50mn
Bit rate mode : Constant
Bit rate : 192 Kbps
Channel(s) : 2 channels
Sampling rate : 44.1 KHz
Stream size : 151 MiB (11%)
Alignment : Split accross interleaves
Interleave, duration : 42 ms (1.00 video frame
Interleave, preload duration : 500 ms

SOURCES:
VIDEO:True Grit.avi ................. Thanks LL
AUDIO:True Grit.avi ................. Thanks LL

NOTES:

IMAGiNE bringing you another release..........True Grit 2010

Here we go with another screener before we sign off for 2010 
Same Q as our The fighter release.
More or less done the same type of work,crop,resixe,rgb eq,sharpness,brigthness and contrast.
Audio was just muxed off the file we were sent.
